<svg width="75" height="86" fill="none" xmlns="http://www.w3.org/2000/svg"><path clip-rule="evenodd" d="M1 7.49h14.79v3.34h28.151V7.49H59.21v43.418h-1.908c-1.909 0-3.34 0-4.772.477V15.6H15.314l-7.157 6.202V67.13H40.6v.477c0 2.386.477 4.771 1.432 6.68H1V7.489v0z" stroke="#EF7F1A" stroke-width="1.808" stroke-miterlimit="22.926" stroke-linecap="round" stroke-linejoin="round"/><path clip-rule="evenodd" d="M15.79 4.15h8.59v.954h10.496v-.955h9.065v6.68h-28.15V4.15z" stroke="#EF7F1A" stroke-width="1.808" stroke-miterlimit="22.926" stroke-linecap="round" stroke-linejoin="round"/><path d="M34.876 1.764H24.379v3.34h10.497v-3.34z" stroke="#EF7F1A" stroke-width="1.808" stroke-miterlimit="22.926" stroke-linecap="round" stroke-linejoin="round"/><path clip-rule="evenodd" d="M15.314 15.6h37.215v35.785c-6.68 1.908-11.928 8.111-11.928 15.745H8.157V21.803l7.157-6.202v0z" stroke="#EF7F1A" stroke-width="1.808" stroke-miterlimit="22.926" stroke-linecap="round" stroke-linejoin="round"/><path clip-rule="evenodd" d="M15.314 15.6l-7.157 6.203h7.157v-6.202z" stroke="#EF7F1A" stroke-width=".904" stroke-miterlimit="22.926" stroke-linecap="round" stroke-linejoin="round"/><path d="M21.04 28.006h-7.158v6.68h7.157v-6.68zM21.04 41.365h-7.158v6.68h7.157v-6.68zM21.04 53.77h-7.158v6.68h7.157v-6.68zM25.333 30.391h21.948M25.81 32.777h13.36M25.333 43.274h21.948M25.81 45.66h13.36M25.333 56.156h19.562M25.81 58.542h13.36" stroke="#EF7F1A" stroke-width=".904" stroke-miterlimit="22.926" stroke-linecap="round" stroke-linejoin="round"/><path d="M15.314 31.346l1.908 1.908 2.863-3.817M15.314 44.228l1.908 2.386 2.863-3.817M15.314 57.11l1.908 1.909 2.863-3.817" stroke="#EF7F1A" stroke-width=".904" stroke-miterlimit="22.926" stroke-linecap="round" stroke-linejoin="round"/><path d="M57.3 84.306c9.224 0 16.7-7.476 16.7-16.699 0-9.223-7.477-16.7-16.7-16.7-9.222 0-16.699 7.477-16.699 16.7 0 9.223 7.477 16.7 16.7 16.7z" stroke="#EF7F1A" stroke-width="1.808" stroke-miterlimit="22.926"/><path d="M66.843 65.221h-5.248v10.497h5.248V65.221zM61.595 66.176c-.954-.954-2.386-1.909-2.863-2.863-.954-.477-1.431-1.431-1.431-1.909-.477-.477-.477-1.43-.477-1.908-.478-.954-.478-1.431-.478-1.909 0 0 0-.477-.477-.477h-.954c-.477 0-.477 0-.477.477-.477.478-.477.955-.477 1.909-.477.477-.477 1.431 0 2.386 0 .954 0 1.431.477 2.385 0 .477.477.477.477.477 0 .478-.477.478-1.431.478H47.758c0 .477-.477.954-.477.954v.954c.477.477.477.954.954.954v.477c-.477 0-.477 0-.477.477v.478c.477.477.477.954.477.954.477 0 .477 0 .477.477s-.477.477-.477.954.477.477.477.955c.477.477.955.477.955.477v.954s0 .477.477.954c0 0 .477.477 1.908.477 1.432 0 3.817 0 5.726-.477 1.908 0 2.863-.477 3.817-.954" stroke="#EF7F1A" stroke-width=".904" stroke-miterlimit="22.926"/></svg>