<svg width="73" height="81" fill="none" xmlns="http://www.w3.org/2000/svg"><path clip-rule="evenodd" d="M6.176 12.048h15.14l.522 1.566-3.132 2.088 2.088 3.132-2.088 3.133 3.132 2.088v1.044H6.176l2.61-6.787-2.61-6.264zM67.257 12.048H51.596l-.522 1.566 2.61 2.088-1.566 3.132 1.566 3.133-2.61 2.088v1.044h16.183l-3.132-6.787 3.132-6.264z" stroke="#EF7F1A" stroke-width="2.088" stroke-miterlimit="22.926" stroke-linecap="round" stroke-linejoin="round"/><path clip-rule="evenodd" d="M36.456 1.084l2.61 2.61 3.655-1.565 1.566 3.132h3.654l.522 3.654 3.133 1.044-.522 3.655 2.61 2.088-1.566 3.132 1.566 3.133-2.61 2.088.522 3.654-3.133 1.045-.522 3.654h-3.654L42.72 35.54l-3.655-1.566-2.61 2.61-2.61-2.61-3.655 1.566-1.566-3.132h-3.654l-.523-3.654-3.654-1.045 1.044-3.654-3.132-2.088 2.088-3.133-2.088-3.132 3.132-2.088-1.044-3.655 3.654-1.044.523-3.654h3.654l1.566-3.132 3.655 1.566 2.61-2.61z" stroke="#EF7F1A" stroke-width="2.088" stroke-miterlimit="22.926" stroke-linecap="round" stroke-linejoin="round"/><path clip-rule="evenodd" d="M36.456 5.783l2.088 2.088 2.088-1.044L42.2 8.915h2.61v2.61l2.61 1.045-.522 2.088 2.088 2.088-1.566 2.088 1.566 2.089-2.088 1.566.522 2.61-2.61 1.044v2.61l-2.61-.521-1.567 2.61-2.088-1.044-2.088 1.566-2.088-1.566-2.089 1.044-1.566-2.088h-2.61v-2.61l-2.61-1.045.522-2.61-2.088-1.566 1.044-2.089-1.044-2.088 2.088-1.566-.522-2.61 2.088-1.044.522-2.61h2.61l1.566-2.089 2.089 1.044 2.088-2.088z" stroke="#EF7F1A" stroke-width="1.044" stroke-miterlimit="22.926" stroke-linecap="round" stroke-linejoin="round"/><path clip-rule="evenodd" d="M33.846 13.614V10.48h6.264v3.133h-1.566v10.441h1.566v2.61h-6.264v-2.61h1.566V13.614h-1.566zM27.58 38.673l1.045 1.566 2.088.522-1.044 1.566v2.088l-2.088-.522-2.088.522v-2.088l-1.044-1.566 1.566-.522 1.566-1.566zM36.978 39.717l1.044 1.566 2.088 1.044-1.044 1.566v2.088l-2.088-.522-2.088.522v-2.088l-1.044-1.566 1.566-1.044 1.566-1.566zM46.375 38.15l1.044 1.567 2.088.522-1.044 1.566v2.088l-2.088-.522-2.088.522v-1.566l-1.044-2.088 1.566-.522 1.566-1.566zM42.199 47.548l1.044 2.088 2.088.522-1.044 1.566v2.088l-2.088-.522-2.089.522v-2.088l-1.044-1.566 2.088-.522 1.044-2.088zM31.757 47.548l1.567 1.566 2.088 1.044-1.566 1.566v2.088l-1.567-.522-2.088.522v-2.088l-1.566-1.566 2.088-.522 1.044-2.088z" stroke="#EF7F1A" stroke-width="1.044" stroke-miterlimit="22.926" stroke-linecap="round" stroke-linejoin="round"/><path clip-rule="evenodd" d="M27.059 69.996c0-2.61 0-6.787-.522-9.397-.522-2.61-1.566-4.176-2.61-5.22-1.045-1.045-1.567-2.089-2.61-3.133-1.045-1.044-2.09-2.088-3.133-3.654-1.566-1.566-3.655-4.177-4.699-5.22-1.566-1.045-2.61-.523-3.132-.523-.522.522-1.044 1.044-.522 1.566 0 .522 0 1.044 1.044 2.61 1.044 1.567 2.088 3.133 2.61 4.7 1.044 1.565 1.044 2.61 1.044 3.131-.522.523-1.044.523-2.088-1.044-1.044-1.566-2.61-4.176-3.654-6.264-1.044-2.089-1.566-3.133-1.566-5.22-.522-2.09-.522-5.222-1.045-7.31 0-1.566-.522-3.132-1.044-3.654-.522-.522-1.566-.522-2.088-.522C2.522 31.364 2 31.886 2 32.408c0 1.044 0 1.566.522 4.698 0 3.133.522 8.875.522 11.486.522 3.132.522 3.132 2.61 5.742 2.089 2.61 5.743 6.787 7.831 9.397 1.567 2.61 1.567 2.61 2.088 3.655v2.61H27.06z" stroke="#EF7F1A" stroke-width="2.088" stroke-miterlimit="22.926" stroke-linecap="round" stroke-linejoin="round"/><path d="M5.654 32.93c.522 0 .522-.522 1.045-.522.522 0 1.044 0 1.566.522l.522.522c0 .522.522 1.044.522 2.61.522 1.567 1.044 4.177 1.566 6.787M9.309 34.496h1.044s.522 0 1.044.522c0 0 .522.523.522 1.044.522.523.522 1.567 1.044 3.133 0 1.044.522 3.132 1.044 5.22M28.625 69.996H12.963v9.92h15.662v-9.92z" stroke="#EF7F1A" stroke-width="2.088" stroke-miterlimit="22.926" stroke-linecap="round" stroke-linejoin="round"/><path clip-rule="evenodd" d="M45.33 69.996c0-2.088 0-6.264.523-9.397.522-2.61 1.566-3.654 2.61-4.698 1.044-1.567 2.088-2.61 3.133-3.133 1.044-1.044 1.566-2.088 3.132-3.654 1.566-2.088 3.654-4.176 4.698-5.22 1.567-1.045 2.61-1.045 3.133-.523.522 0 1.044.522 1.044 1.044-.522.523-.522 1.567-1.566 2.61-.522 1.567-2.088 3.655-2.61 5.221-1.045 1.566-1.045 2.61-1.045 3.133.522.522 1.044.522 2.089-1.044 1.044-1.567 2.61-4.699 3.654-6.787 1.044-2.089 1.566-3.133 1.566-5.22.522-2.089 1.044-4.7 1.044-6.788.522-2.088.522-3.132 1.044-4.176.523-.522 1.567-.522 2.089 0 .522 0 1.044.522 1.044 1.566.522.522 0 1.566 0 4.699-.522 3.132-.522 8.353-1.044 10.963-.522 3.132-.522 3.654-2.61 5.742-2.089 2.61-5.743 7.31-7.831 9.398-1.567 2.61-2.089 2.61-2.089 3.654v2.61H45.331v0z" stroke="#EF7F1A" stroke-width="2.088" stroke-miterlimit="22.926" stroke-linecap="round" stroke-linejoin="round"/><path d="M67.257 32.93h-1.044c-.522-.522-1.044-.522-1.044 0-.522 0-1.044.522-1.044 1.044 0 0 0 .522-.522 2.089-.522 1.566-1.044 4.176-1.566 6.786M63.603 35.018h-1.044-1.044c0 .522-.522.522-.522 1.044-.522 1.044-.522 1.567-1.044 3.133-.523 1.566-.523 3.132-1.045 5.22M59.426 69.996H43.243v9.92h16.183v-9.92z" stroke="#EF7F1A" stroke-width="2.088" stroke-miterlimit="22.926" stroke-linecap="round" stroke-linejoin="round"/></svg>