<svg width="71" height="77" fill="none" xmlns="http://www.w3.org/2000/svg"><path clip-rule="evenodd" d="M1.422 14.044L40.768 1.691V75.81H1.422V14.044z" stroke="#EF7F1A" stroke-width="1.83" stroke-miterlimit="22.926" stroke-linecap="round" stroke-linejoin="round"/><path clip-rule="evenodd" d="M40.31 22.28h29.282v53.529H40.31v-53.53z" stroke="#EF7F1A" stroke-width="1.83" stroke-miterlimit="22.926" stroke-linecap="round" stroke-linejoin="round"/><path d="M65.474 9.469H40.768v12.81h24.706V9.47zM51.29 2.606V9.47" stroke="#EF7F1A" stroke-width="1.83" stroke-miterlimit="22.926" stroke-linecap="round" stroke-linejoin="round"/><path d="M61.814 12.214h-18.3v6.405h18.3v-6.405zM66.389 25.482H40.31v5.033h26.078v-5.033zM66.389 33.717H40.31v5.033h26.078v-5.033zM66.389 41.953H40.31v5.032h26.078v-5.032zM66.389 50.188H40.31v5.032h26.078v-5.032zM66.389 58.423H40.31v5.033h26.078v-5.033zM66.389 66.658H40.31v5.033h26.078v-5.033zM10.572 11.299v64.51M20.18 8.096V75.81M30.245 4.894v70.915M1.422 21.364h39.346M1.422 40.123h39.346M1.422 57.508h39.346" stroke="#EF7F1A" stroke-width=".915" stroke-miterlimit="22.926" stroke-linecap="round" stroke-linejoin="round"/></svg>