<svg width="83" height="101" fill="none" xmlns="http://www.w3.org/2000/svg"><path clip-rule="evenodd" d="M1.236 7.2h16.399v3.963h31.34V7.2H65.92l.091 50.152-2.687-2.46-3.007 2.597-3.507-1.458-1.913 3.462-3.827-.182-.592 3.917-3.644 1.14.774 3.871-3.006 2.323 2.05 3.417-2.05 3.188 3.097 2.506-.41 1.64h-.82v.045H1.236V7.2z" stroke="#EF7F1A" stroke-width="1.373" stroke-miterlimit="22.926" stroke-linecap="round" stroke-linejoin="round"/><path clip-rule="evenodd" d="M17.635 3.464h9.52v1.321H38.59v-1.32h10.386v7.698h-31.34V3.464z" stroke="#EF7F1A" stroke-width="1.373" stroke-miterlimit="22.926" stroke-linecap="round" stroke-linejoin="round"/><path d="M38.589 1.05H27.155v3.735H38.59V1.05z" stroke="#EF7F1A" stroke-width="1.373" stroke-miterlimit="22.926" stroke-linecap="round" stroke-linejoin="round"/><path clip-rule="evenodd" d="M17.134 16.355h41.361V32.71h.046V56.76l-1.731-.729-1.913 3.462-3.827-.182-.592 3.917-3.644 1.14.774 3.871-3.006 2.323 1.776 2.916h-1.457l-.046.09H9.071v-50.38l8.063-6.832z" stroke="#EF7F1A" stroke-width="1.373" stroke-miterlimit="22.926" stroke-linecap="round" stroke-linejoin="round"/><path clip-rule="evenodd" d="M17.134 16.355L9.07 23.28l8.063-.136v-6.788z" stroke="#EF7F1A" stroke-width=".687" stroke-miterlimit="22.926" stroke-linecap="round" stroke-linejoin="round"/><path d="M23.375 30.203h-7.699v7.653h7.699v-7.653zM23.375 44.643h-7.699v7.653h7.699v-7.653zM23.375 58.582h-7.699v7.653h7.699v-7.653zM28.203 32.663H52.71M28.43 35.396h15.078M28.203 47.103H52.71M28.43 49.836h15.078M28.203 61.27h21.5M28.43 64.003h15.078" stroke="#EF7F1A" stroke-width=".687" stroke-miterlimit="22.926" stroke-linecap="round" stroke-linejoin="round"/><path d="M17.18 33.665l2.095 2.323 2.824-4.327M17.18 48.333l2.095 2.323 2.824-4.373M17.18 62.226l2.095 2.369 2.824-4.373" stroke="#EF7F1A" stroke-width=".687" stroke-miterlimit="22.926" stroke-linecap="round" stroke-linejoin="round"/><path clip-rule="evenodd" d="M63.324 60.176l2.004 1.868 2.642-1.048 1.275 2.46 2.87-.09.365 2.732 2.687.911-.592 2.688 2.232 1.822-1.503 2.277 1.503 2.46-2.186 1.686.546 2.778-2.642.82-.41 2.825-2.733-.137-1.412 2.505-2.505-1.047-2.142 1.867-2.05-1.822-2.641 1.002-1.276-2.414-2.87.046-.318-2.734-2.733-.91.592-2.688-2.187-1.777 1.458-2.323-1.458-2.414 2.141-1.686-.547-2.824 2.643-.82.41-2.824 2.778.137 1.367-2.506 2.55 1.048 2.142-1.867z" stroke="#EF7F1A" stroke-width=".687" stroke-miterlimit="22.926" stroke-linecap="round" stroke-linejoin="round"/><path clip-rule="evenodd" d="M56.946 99.442v-7.79l3.553-1.366 2.825 2.597 2.96-2.597 3.508 1.458 1.23-2.187v9.885l-7.106-3.097-6.97 3.097z" stroke="#EF7F1A" stroke-width="1.373" stroke-miterlimit="22.926" stroke-linecap="round" stroke-linejoin="round"/><path clip-rule="evenodd" d="M63.324 54.892l2.778 2.551 3.69-1.412 1.776 3.371 3.963-.091.456 3.78 3.78 1.276-.82 3.736L82 70.563l-2.05 3.233L82 77.167l-3.007 2.323.775 3.872-3.644 1.14-.593 3.917-3.826-.182-1.913 3.507-3.508-1.458-2.96 2.597-2.825-2.597-3.69 1.458-1.776-3.416-3.963.09-.455-3.78-3.781-1.276.865-3.69-3.097-2.505 2.05-3.188-2.05-3.417 3.006-2.323-.774-3.872 3.644-1.139.592-3.917 3.827.182 1.913-3.462 3.507 1.458 3.007-2.596z" stroke="#EF7F1A" stroke-width="1.373" stroke-miterlimit="22.926" stroke-linecap="round" stroke-linejoin="round"/><path d="M70.566 71.701h-4.008v7.88h4.008v-7.88zM66.558 72.521c-.957-.729-1.868-1.458-2.46-2.05-.592-.592-.774-1.093-.957-1.594-.227-.501-.364-1.048-.455-1.503-.091-.501-.137-.911-.182-1.23-.046-.274-.137-.41-.365-.456-.182-.09-.455-.045-.729 0-.227.046-.41.091-.592.365-.136.273-.273.728-.319 1.275a7.045 7.045 0 0 0 0 1.959c.046.637.183 1.23.32 1.64.181.41.364.592.41.683.045.091-.092.091-.957.091-.82 0-2.415 0-3.28.046-.82.045-.911.09-1.093.273-.137.137-.32.364-.365.638a.73.73 0 0 0 .046.683c.136.273.41.501.5.638.138.136.092.182 0 .227-.045.091-.136.228-.181.41-.046.183 0 .456.09.638.137.228.32.456.456.592.137.091.228.137.273.182 0 .046-.045.092-.136.228-.046.137-.137.365-.137.638s.091.547.32.774c.181.183.5.365.637.456.136.045.09.091.045.182-.09.046-.136.182-.09.365 0 .227.136.5.318.728.182.183.456.365 1.503.41 1.094.046 2.961 0 4.328-.182 1.366-.228 2.232-.638 3.052-1.048" stroke="#EF7F1A" stroke-width=".687" stroke-miterlimit="22.926" stroke-linecap="round" stroke-linejoin="round"/></svg>