<svg width="90" height="83" fill="none" xmlns="http://www.w3.org/2000/svg"><path clip-rule="evenodd" d="M69.595 19.466h11.57c4.282 0 7.835 3.507 7.835 7.79v35.62c0 4.283-3.553 7.836-7.835 7.836h-8.564s1.276 7.653-6.924 10.841c3.736-6.24-4.782-10.841-4.782-10.841H28.507c-4.327 0-7.835-3.553-7.835-7.835v-2.46c.957.911 2.232 1.731 3.872 2.414-3.735-6.24 4.829-10.887 4.829-10.887H61.76c4.282 0 7.835-3.507 7.835-7.835V19.466v0z" stroke="#EF7F1A" stroke-width="1.373" stroke-miterlimit="22.926" stroke-linecap="round" stroke-linejoin="round"/><path clip-rule="evenodd" d="M61.76.698H9.102c-4.327 0-7.835 3.554-7.835 7.835V44.11a7.835 7.835 0 0 0 7.835 7.835h8.518s-1.23 7.653 6.924 10.887c-3.735-6.24 4.829-10.887 4.829-10.887H61.76c4.282 0 7.835-3.507 7.835-7.835V8.533c0-4.281-3.553-7.835-7.835-7.835v0z" stroke="#EF7F1A" stroke-width="1.373" stroke-miterlimit="22.926" stroke-linecap="round" stroke-linejoin="round"/><path d="M54.29 33.132h-3.462c-.68 0-1.23.55-1.23 1.23v9.2c0 .68.55 1.23 1.23 1.23h3.462c.679 0 1.23-.55 1.23-1.23v-9.2c0-.68-.551-1.23-1.23-1.23zM49.598 34.316c-1.367-1.048-2.779-2.141-3.599-3.007-.865-.91-1.184-1.64-1.458-2.368-.273-.775-.546-1.55-.683-2.232-.136-.73-.182-1.367-.228-1.822-.09-.41-.227-.593-.546-.684-.274-.09-.684-.045-1.048 0-.364.091-.683.183-.911.593-.228.364-.41 1.002-.501 1.867-.091.866-.046 1.868.045 2.87.092.956.228 1.867.502 2.414.227.592.5.866.592 1.048.045.137-.137.137-1.412.137-1.276 0-3.599 0-4.829.045-1.275.046-1.412.137-1.64.364-.182.228-.455.593-.546.957-.137.364-.091.683.09 1.048.183.364.593.729.73.91.136.228.09.228 0 .365a1.193 1.193 0 0 0-.274.592c-.045.274 0 .638.137.957.182.319.456.638.683.82.182.182.32.273.365.319 0 .045-.046.09-.183.319a2.209 2.209 0 0 0-.227.91c0 .41.182.82.455 1.14.319.318.775.546.957.683.227.136.136.136.045.273-.045.091-.182.273-.136.592.045.273.227.683.5 1.002.274.32.639.547 2.233.638 1.594.091 4.373.046 6.377-.319 2.05-.319 3.28-.91 4.51-1.503" stroke="#EF7F1A" stroke-width="1.373" stroke-miterlimit="22.926"/><path clip-rule="evenodd" d="M11.197 37.55l1.276-.957.592-1.64 1.321.912 1.777.09-.456 1.55.456 1.685-1.64.045-1.458.912-.501-1.504-1.367-1.093zM11.197 27.3l1.276-.956.592-1.64 1.321.911 1.777.091-.456 1.55.456 1.685h-1.64l-1.458.956-.501-1.503-1.367-1.093zM11.197 16.87l1.276-1.003.592-1.64 1.321.912 1.777.09-.456 1.55.456 1.685-1.64.045-1.458.957-.501-1.503-1.367-1.094zM19.306 32.813l1.275-.957.638-1.64 1.32.911 1.732.091-.456 1.55.456 1.684-1.595.046-1.457.957-.547-1.504-1.366-1.138zM19.306 22.381l1.275-.956.638-1.64 1.32.91 1.732.092-.456 1.549.456 1.685h-1.595l-1.457.957-.547-1.504-1.366-1.093z" stroke="#EF7F1A" stroke-width=".687" stroke-miterlimit="22.926" stroke-linecap="round" stroke-linejoin="round"/><path d="M32.015 62.74h23.368M64.949 62.74h15.943" stroke="#EF7F1A" stroke-width=".687" stroke-miterlimit="22.926" stroke-linecap="round" stroke-linejoin="round"/><path d="M31.468 15.685l2.05-.228c.045.41.182.73.41.911.228.228.5.32.82.32.455 0 .82-.229 1.139-.593.318-.41.5-1.275.592-2.55-.547.637-1.23.91-2.05.91-.866 0-1.594-.319-2.232-1.002-.638-.683-.957-1.549-.957-2.642 0-1.139.32-2.05 1.002-2.733.684-.683 1.504-1.048 2.551-1.048 1.14 0 2.05.456 2.779 1.321.729.866 1.093 2.323 1.093 4.328 0 2.05-.364 3.507-1.139 4.418-.728.911-1.73 1.367-2.915 1.367-.865 0-1.594-.228-2.095-.683-.547-.502-.911-1.185-1.048-2.096zm4.829-4.692c0-.683-.183-1.23-.502-1.594-.318-.41-.683-.592-1.093-.592-.41 0-.729.182-.956.5-.274.274-.41.82-.41 1.504 0 .729.136 1.23.41 1.594.273.32.637.501 1.093.501.41 0 .729-.182 1.002-.5.273-.32.456-.775.456-1.413zm3.826 4.692l2.095-.228c.046.41.182.73.365.911.227.228.5.32.865.32.41 0 .775-.229 1.093-.593.32-.41.502-1.275.593-2.55-.547.637-1.23.91-2.005.91-.91 0-1.64-.319-2.277-1.002-.638-.683-.957-1.549-.957-2.642 0-1.139.319-2.05 1.002-2.733a3.506 3.506 0 0 1 2.551-1.048c1.139 0 2.096.456 2.824 1.321.684.866 1.048 2.323 1.048 4.328 0 2.05-.364 3.507-1.093 4.418-.774.911-1.731 1.367-2.961 1.367-.865 0-1.549-.228-2.095-.683-.547-.502-.911-1.185-1.048-2.096zm4.828-4.692c0-.683-.182-1.23-.5-1.594-.32-.41-.684-.592-1.094-.592-.364 0-.729.182-.956.5-.274.274-.41.82-.41 1.504 0 .729.136 1.23.41 1.594.318.32.637.501 1.093.501.41 0 .729-.182 1.047-.5.274-.32.41-.775.41-1.413zm3.781-1.139c0-1.002.228-1.73.638-2.232.455-.455 1.048-.728 1.822-.728s1.367.227 1.822.728c.41.456.638 1.23.638 2.232 0 1.003-.228 1.731-.638 2.187-.455.501-1.048.729-1.822.729s-1.367-.228-1.822-.73c-.41-.455-.638-1.183-.638-2.186zm1.686 0c0 .684.045 1.185.227 1.413a.65.65 0 0 0 .547.273c.228 0 .41-.091.501-.273.182-.228.273-.73.273-1.413 0-.728-.09-1.23-.273-1.457-.091-.182-.273-.274-.501-.274a.65.65 0 0 0-.547.274c-.182.228-.227.729-.227 1.457zm2.368 8.838h-1.548l5.921-11.798h1.55l-5.923 11.798zm3.462-2.916c0-1.002.228-1.776.684-2.232.41-.5 1.002-.729 1.776-.729.775 0 1.367.228 1.822.73.41.455.638 1.229.638 2.231 0 1.002-.228 1.731-.638 2.232-.455.456-1.047.684-1.776.684-.82 0-1.412-.228-1.822-.684-.456-.5-.684-1.23-.684-2.232zm1.686 0c0 .729.09 1.184.227 1.458a.65.65 0 0 0 .547.273c.228 0 .41-.091.501-.273.182-.274.273-.729.273-1.458s-.09-1.23-.227-1.457c-.137-.228-.32-.32-.547-.32-.228 0-.41.092-.547.32-.136.227-.227.728-.227 1.457z" fill="#EF7F1A"/><path d="M32.197 56.682h43.775M64.402 51.033h15.943M69.185 45.795h8.2M69.55 39.418h12.48M69.55 32.995h7.425" stroke="#EF7F1A" stroke-width=".687" stroke-miterlimit="22.926" stroke-linecap="round" stroke-linejoin="round"/></svg>