<svg width="89" height="81" fill="none" xmlns="http://www.w3.org/2000/svg"><path d="M79.56.826H9.41c-4.554 0-8.245 3.998-8.245 8.929v61.13c0 4.931 3.69 8.928 8.244 8.928h70.15c4.554 0 8.245-3.997 8.245-8.928V9.755c0-4.931-3.691-8.929-8.245-8.929z" stroke="#EF7F1A" stroke-width="1.373" stroke-miterlimit="22.926"/><path fill-rule="evenodd" clip-rule="evenodd" d="M17.973 58.04h3.69l.182 1.002c-1.139-.365-2.642-.137-3.872-.137v-.865zm29.245-33.845l-.046-.091c.273-1.094.364-1.64.82-2.734.82-2.186 3.052-4.646 5.284-5.466L52 24.377c.456.182 1.003.228 1.413.41.364-.73 1.822-11.434 2.14-12.026.456-.865 1.048-.865 2.278-.865.456 0 .957-.046 1.367.09.683.183.273.046.455.274.957.911 2.415 11.251 3.098 12.618.41-.228.956-.228 1.412-.41-.091-1.184-1.549-7.38-1.64-8.564.228.091 1.139.638 1.184.683.046 0 .091 0 .091.046.046 0 .046.046.092.046.045 0 .045.045.09.045 0 .046.046.046.092.091 1.184.911 1.685 1.458 2.596 2.779 1.093 1.594 1.321 2.414 1.731 4.236.091.547 0 .866.228 1.458 1.002 0 2.323.09 2.55 1.275.229 1.458-.865 1.412-1.684 1.412H46.215c-.273 0-.637 0-.865-.045-.866-.091-1.139-.592-.911-1.503.091-.456.592-.911 1.093-.957l1.458-.228c.319-.319.228-.364.228-1.047zM22.346 60.454h.866c.182-.364.136-.228.136-.775v-3.188H22.21v-3.28c1.23-.09 1.594-.455 1.958-.455.091-.137.274-.228.456-.41.228-.182.546-.501.683-.82.091-.183.137-.365.182-.501v-1.503c2.779 1.366 6.15 1.503 8.928-.137 0 .82-.182 1.959.365 2.596.182.228.455.456.638.592.045.046.045.091.09.091h.046c-.136.502-.182.32-.455.82-.456.911-.684 2.05-.684 3.144v5.238H22.21l.136-1.412zm44.869-5.102h5.147c-.045.729-.09.729.091 1.412-1.275-.364-3.78-.136-5.238-.136v-1.276zm-24.006 0h5.102v1.276h-4.92c-.228-.547-.182-.638-.182-1.276zm-23.96-1.002v-.273c.319-.183.956-.32 1.412-.274 0 .911-.137 1.96.136 2.825-.728-.183-.865-.137-1.548-.137V54.35zm49.515-4.373c.592.273 1.412.273 2.004.547v3.28H68.9c-.41-1.048-.136-2.688-.136-3.827zm-20.453-.319c.638-.273 3.507-.865 3.826-1.275.137-.228.182-.73.182-.866V45.012c1.321.273 1.868 1.23 5.785 1.275 1.367 0 2.096-.182 3.098-.5.501-.183.774-.229 1.23-.456.501-.274.82-.501 1.23-.501v2.277c0 .091 0 .182.045.228 0 .364.091.638.274.865.136.274.41.456.592.547.091.046.137.091.182.137.365.136.957.273 1.093.319.501.136.911.227 1.367.319v4.281c-1.913 0-1.594-.683-1.594 3.963 0 .73.82.274 1.594.547l.136 2.004h-19.04v-2.14h1.412c0-5.285.501-4.374-1.412-4.374v-4.145zm-3.553.866c.82-.046 1.23-.41 2.004-.41 0 1.23-.182 2.642.137 3.826-.775-.228-1.321-.137-2.141-.137v-3.28zM22.073 41.14l-.137-4.1h15.625c0 4.145.546 7.106-2.415 9.976-2.323 2.278-6.787 2.642-9.201 1.048-1.458-.957-.592-.365-1.64-1.321-.182-.182-.228-.274-.41-.456l-1.184-1.822c-.41-1.048-.638-1.867-.638-3.325zm26.238-5.102v-6.24h19.04c-.637 2.733 2.415 11.57-6.741 14.576-1.276.41-3.325.456-4.738.228-.045 0-.227-.046-.273-.046-.045 0-.091 0-.091-.045-1.139-.228-2.095-.775-3.006-1.276-.866-.5-.547-.5-1.094-.865-.683-.501-.41-.32-.91-.957a2.601 2.601 0 0 1-.32-.364c-1.002-1.23-1.867-3.28-1.867-5.01zM34.008 25.835c.91.41 1.503 1.047 2.232 1.73 1.457 1.367 2.277 3.645 2.277 5.74 2.141 0 2.141.137 2.141 1.594-1.093.775-4.008.456-5.557.456-2.232 0-9.612.09-13.21.045h-2.096a.962.962 0 0 1-.956-.956c0-.274.09-.501.228-.638v-.045h.045c.137-.183.41-.274.638-.274l.045-.045c.182-.092.41-.183.638-.32.228-.136.364-.318.501-.5l.273-.547c.046-.137.091-.273.183-.501 0-.182.045-.319.09-.501.32-1.093.639-1.868 1.322-2.779 1.184-1.549 1.503-1.64 2.96-2.596-.045 1.002-1.047 5.921-1.047 6.924.547.045.865.227 1.412.273l1.549-8.382c.638-2.505.41-2.232 3.325-2.232.456.638.547.365.774 1.367.274 1.048 1.731 8.928 1.777 9.566.592-.046.865-.273 1.549-.273-.182-.775-1.093-6.241-1.093-7.107zM53.73 14.035c-3.006.73-5.83 3.736-7.106 6.56-.227.456-.41 1.139-.592 1.685-.182.547-.273 1.23-.41 1.823-2.46 0-3.644 3.052-1.913 4.691.866.82 1.64.73 3.052.73 0 5.101-.638 9.383 2.733 13.164.274.273.82.865 1.23 1.002v3.69l-4.327 1.184c-.092 0-.638.137-.911.228-2.415.592-4.875 1.184-7.152 1.913-.638.228-.957.5-1.503.82a2.42 2.42 0 0 0-.866-.274v-3.006c.775-.501 1.686-1.731 2.141-2.688 1.321-2.733 1.002-5.694 1.002-8.791.911 0 1.777 0 2.46-.638 1.412-1.366.501-4.008-1.64-4.054 0-1.458-.683-2.915-1.412-4.054l-.956-1.367c-.365-.5-.911-.865-1.413-1.275-.592-.547-1.366-.911-2.095-1.276-.045 0-.091-.045-.137-.045-1.366-.729-.455-3.325-3.598-3.325-1.458 0-2.096-.091-2.916.637-.637.592-1.047 1.367-1.093 2.46-1.594.365-3.416 1.913-4.327 3.007-1.184 1.412-1.731 2.96-2.187 4.691-.09.456-.09.41-.5.593-1.094.364-1.914 1.002-1.914 2.368 0 .501.091.684.273 1.003.866 1.594 1.458.865 2.87 1.412 0 3.598-.364 6.832 1.595 9.611l1.275 1.549.091.09.41.365v2.733L19.75 52.3c-.866.273-1.185.319-2.141.592-2.597.638-5.83 1.048-6.833 3.963-.638 1.959-.364 20.362-.364 22.73h1.594V58.77c0-.775.137-1.367.501-1.914.729-1.184 1.822-1.548 3.098-1.822.637-.182 1.457-.592 2.05-.41v1.868h-1.276c0 4.054-.547 3.963 1.412 3.963-.182.592-.137.774-.137 1.412h-1.822v17.72h1.55V63.278h1.867v-2.824h1.412v2.824c1.958 0 12.8-.228 13.756.182v2.278c0 1.412-.045 10.204.502 13.711.227 1.549.5-.182 1.047-.182V56.49c0-4.009 3.462-4.646 6.605-5.33l.638-.09c0 .956-.091 1.958.137 2.869-.684-.182-.82-.137-1.55-.137v4.373h1.413c0 2.779.547 2.141-2.278 2.141v17.401c0 1.822.046 1.549 1.595 1.549V61.866c2.96 0 2.232.638 2.232-3.69h2.004c0 2.187-.319 3.69.41 3.69h21.182c.728 0 .41-1.64.41-3.69.683 0 1.412-.09 2.004.137v3.553h2.278v17.128c0 .5 1.23.273 1.548.273v-17.81c0-.684-.09-.593-.136-1.14h-2.141v-2.14h1.412v-4.374h-1.276c-.319-.774-.136-1.958-.136-2.87 1.047.092 2.687.73 3.735.957l1.23.501c1.503.775 2.277 2.323 2.277 4.1v22.776c.456 0 1.55.273 1.55-.41v-22.23c0-1.184-.183-2.004-.593-2.915a.345.345 0 0 1-.091-.182c-.592-1.184-1.685-2.14-2.824-2.733-1.367-.638-3.417-.911-4.92-1.367l-7.47-2.05v-3.963c.455-.227.455-.136.82-.592.136-.227.09-.182.273-.41 3.28-3.735 2.596-8.108 2.596-12.89 1.093 0 2.232.136 3.098-.73.956-1.002 1.093-3.188-.137-4.054-.319-.228-.547-.364-.82-.455-.5-.137-1.002-.046-1.139-.593 0-.136-.045-.318-.045-.5l-.501-1.777c-.137-.41-.182-.456-.365-.774-.136-.365-.136-.502-.319-.82l-.182-.228c-1.002-1.595-2.095-2.916-3.598-4.054l-.274-.182c-.273-.183-.045-.046-.364-.228-.273-.183-.41-.228-.683-.41-.593-.365-1.002-.547-1.64-.684 0-1.32-.547-2.323-1.412-3.051a.098.098 0 0 1-.091-.092c-1.048-.774-2.642-.546-3.872-.546-1.686 0-2.825 2.186-2.825 3.69z" fill="#EF7F1A"/><path clip-rule="evenodd" d="M26.674 66.512h8.153V79.86h-8.153c-1.367 0-2.46-1.139-2.46-2.46v-8.472c0-1.321 1.093-2.415 2.46-2.415v0z" stroke="#EF7F1A" stroke-width=".687" stroke-miterlimit="22.926" stroke-linecap="round" stroke-linejoin="round"/><path d="M64.208 66.512H51.864c-1.988 0-3.599 1.081-3.599 2.415v8.518c0 1.333 1.611 2.414 3.599 2.414h12.344c1.988 0 3.599-1.08 3.599-2.414v-8.518c0-1.334-1.611-2.415-3.599-2.415zM19.704 32.895l19.269.046" stroke="#EF7F1A" stroke-width=".687" stroke-miterlimit="22.926" stroke-linecap="round" stroke-linejoin="round"/><path d="M46.534 24.787l22.958.045" stroke="#EF7F1A" stroke-width=".687" stroke-miterlimit="22.926"/><path d="M23.986 52.346c.866 1.093 1.731 2.186 2.688 3.052 1.002.865 2.14 1.457 3.234 1.503 1.139 0 2.277-.547 3.188-1.367.912-.82 1.595-1.913 2.324-2.96M51.545 48.11c.957 1.366 1.959 2.732 3.097 3.78 1.14 1.048 2.415 1.822 3.69 1.868 1.321 0 2.597-.684 3.644-1.731 1.048-1.002 1.868-2.323 2.642-3.644" stroke="#EF7F1A" stroke-width=".687" stroke-miterlimit="22.926" stroke-linecap="round" stroke-linejoin="round"/></svg>