<svg width="115" height="81" fill="none" xmlns="http://www.w3.org/2000/svg"><path d="M24.187.279h85c.728 0 1.321.455 1.321 1.047V72.57c0 .592-.593 1.047-1.321 1.047h-85c-.73 0-1.321-.455-1.321-1.047V61.227h2.642v10.34h82.358V2.375H25.508v37.353h-2.642v-38.4c0-.593.592-1.048 1.32-1.048z" fill="#EF7F1A"/><path clip-rule="evenodd" d="M30.7 8.615h29.518v56.712H30.701v-4.1h13.574c2.414 0 4.373-2.004 4.373-4.418V44.145c0-2.414-1.959-4.418-4.373-4.418H30.701V8.615v0zM62.86 6.93h40.223v60.037H62.86V6.929zm2.779 2.778h34.619v54.526h-34.62v-27.56h-.819c-.592 0-1.048-.455-1.048-1.001 0-.547.456-1.003 1.048-1.003h.82V9.708v0z" stroke="#EF7F1A" stroke-width=".687" stroke-miterlimit="22.926" stroke-linecap="round" stroke-linejoin="round"/><path d="M113.605 72.934h-94.11v6.787h94.11v-6.787z" stroke="#EF7F1A" stroke-width="1.373" stroke-miterlimit="22.926" stroke-linecap="round" stroke-linejoin="round"/><path d="M69.602 34.67h-4.737a1.002 1.002 0 1 0 0 2.005h4.737a1.002 1.002 0 1 0 0-2.005z" stroke="#EF7F1A" stroke-width=".687" stroke-miterlimit="22.926" stroke-linecap="round" stroke-linejoin="round"/><path clip-rule="evenodd" d="M12.298 39.727h31.977c2.414 0 4.373 2.004 4.373 4.418V56.81c0 2.414-1.959 4.418-4.373 4.418H12.298c-2.005 0-3.736-1.412-4.237-3.28-3.78-.364-6.741-3.507-6.741-7.333 0-3.827 2.915-6.97 6.696-7.38.41-1.959 2.186-3.507 4.282-3.507v0z" stroke="#EF7F1A" stroke-width="1.373" stroke-miterlimit="22.926"/><path d="M8.061 53.028a2.688 2.688 0 1 0 0-5.375 2.688 2.688 0 0 0 0 5.375zM35.94 49.384h-3.918v7.698h3.917v-7.698zM32.022 50.204c-.911-.73-1.822-1.412-2.37-2.005-.591-.592-.774-1.093-.956-1.594-.182-.501-.364-1.002-.455-1.458-.091-.5-.091-.91-.182-1.184-.046-.273-.137-.41-.32-.501-.181-.046-.5 0-.728 0-.228.046-.41.137-.592.41-.137.228-.274.683-.32 1.23a13.391 13.391 0 0 0 0 1.913c.092.638.183 1.23.32 1.594.182.41.364.593.41.684.045.09-.091.09-.911.09-.82 0-2.369 0-3.235.046-.82 0-.91.091-1.047.228-.137.182-.32.41-.365.638a.73.73 0 0 0 .046.683c.137.273.41.501.501.638.091.136.045.136 0 .228-.091.045-.137.182-.182.364-.046.228 0 .456.09.683.092.183.274.41.41.501.183.137.274.182.274.228 0 .046-.045.091-.091.182a1.179 1.179 0 0 0-.182.638c0 .273.136.547.319.729.227.228.5.364.637.455.137.091.091.091.046.183-.091.09-.137.182-.091.41 0 .182.137.455.319.683.182.182.41.319 1.457.41 1.048.045 2.916 0 4.237-.228 1.32-.182 2.14-.592 2.96-1.002" stroke="#EF7F1A" stroke-width=".687" stroke-miterlimit="22.926"/><path d="M9.018 52.846c.09-.775.228-1.595-.41-2.005-.592-.41-1.913-.455-3.234.502-1.367.956-2.733 2.87-2.916 5.01-.182 2.141.82 4.51 2.779 6.195 1.959 1.686 4.92 2.733 7.288 3.644 2.415.912 4.328 1.686 5.421 2.78 1.048 1.092 1.321 2.55 1.549 3.962" stroke="#EF7F1A" stroke-width=".687" stroke-miterlimit="22.926"/><path d="M12.298 61.227c1.366 1.64 2.687 3.326 3.917 4.556 1.184 1.275 2.278 2.14 2.824 3.234.501 1.139.501 2.55.456 3.917" stroke="#EF7F1A" stroke-width=".687" stroke-miterlimit="22.926"/></svg>