<svg width="85" height="96" fill="none" xmlns="http://www.w3.org/2000/svg"><path clip-rule="evenodd" d="M1.232 7.332h16.9v4.1h32.205v-4.1h17.401v49.834c-.865-.137-1.777-.183-2.688-.183-1.685 0-3.37.228-4.92.638v-40.86H17.586l-8.29 7.015v51.793h36.851v.318c0 2.733.547 5.33 1.595 7.699H1.232V7.332v0z" stroke="#EF7F1A" stroke-width="1.373" stroke-miterlimit="22.926" stroke-linecap="round" stroke-linejoin="round"/><path clip-rule="evenodd" d="M18.132 3.505h9.794v1.321h11.752v-1.32h10.66v7.925H18.131V3.505z" stroke="#EF7F1A" stroke-width="1.373" stroke-miterlimit="22.926" stroke-linecap="round" stroke-linejoin="round"/><path d="M39.678 1H27.926v3.826h11.752V1z" stroke="#EF7F1A" stroke-width="1.373" stroke-miterlimit="22.926" stroke-linecap="round" stroke-linejoin="round"/><path clip-rule="evenodd" d="M17.585 16.761h42.546v40.86c-7.972 2.141-13.848 9.384-13.985 17.947H9.295V23.776l8.29-7.015v0z" stroke="#EF7F1A" stroke-width="1.373" stroke-miterlimit="22.926" stroke-linecap="round" stroke-linejoin="round"/><path clip-rule="evenodd" d="M17.585 16.761l-8.29 7.106 8.29-.137v-6.969z" stroke="#EF7F1A" stroke-width=".687" stroke-miterlimit="22.926" stroke-linecap="round" stroke-linejoin="round"/><path d="M18.724 32.659h31.568M19.043 36.895h19.405M18.724 46.05h31.568M19.043 50.333h19.405M18.724 58.304h27.741M19.043 62.586h19.405" stroke="#EF7F1A" stroke-width=".687" stroke-miterlimit="22.926" stroke-linecap="round" stroke-linejoin="round"/><path d="M65.05 94.837c10.466 0 18.95-8.484 18.95-18.95 0-10.465-8.484-18.95-18.95-18.95-10.465 0-18.95 8.485-18.95 18.95 0 10.466 8.485 18.95 18.95 18.95z" stroke="#EF7F1A" stroke-width="1.373" stroke-miterlimit="22.926"/><path fill-rule="evenodd" clip-rule="evenodd" d="M63.32 85.681c.045 0 .045 0 .09-.046h.092c.182 0 .5-.364.683-.592l.091-.09.137-.092c.182-.182.546-.547.546-.729v-.045l.046-.046v-.136l-.137-.228v-.091l-.09-.091c-.046-.046-.092-.046-.183-.092h-.046a.943.943 0 0 0-.273-.09c-.091 0-.137.045-.182.09 0 .046-.228.228-.273.32-.046 0-.091.045-.137.09-.046.046-.091.091-.091.137l-.32.273c-.045.046-.09.091-.136.091-.045.046-.045.092-.09.137v.046c-.092.09-.229.227-.32.273-.045.046-.045.046-.045.137v.182l.045.09c0 .092.046.183.091.274.046.046.092.091.183.091l.136.091c.046 0 .091.046.182.046zm-7.334-16.034l1.958 1.366c.32.228.547.547.592.911.046.228 0 .456-.045.684.046 0 .091.045.182.045l.137.046c.045.045.091.045.136.045a.495.495 0 0 0 .228.046l.091.045.502.046h.09c.183.045.41.045.456 0l.046-.046h.045c.046.046.137 0 .228 0s.182-.045.228-.045l.045-.046c.091 0 .182-.045.274-.045.09-.046.136-.091.182-.091l.045-.046h.046c.045 0 .137-.046.228-.091.09 0 .136-.046.182-.046.09-.045.182-.045.273-.09.137 0 .228-.046.319-.046h.091l.046-.046.865.046h.046c.045.09.227.09.364.136h.182l.274.137c.09 0 .182.046.273.046l.046.045c.045 0 .136.046.227.091.091.046.137.046.183.091 0 0 0 .046 0 0l.5-.182c.32-.182.73-.273 1.14-.364h.273v-.046h.683v.046c.045 0 .091 0 .182.045.182 0 .41.046.456.091h.045c.091.046.365.137.638.228.182.046.319.091.319.091h.045l.046.046h.045l.046.045h.046c.045 0 .136 0 .182.046h.774c.137 0 .41 0 .501-.091h.274l.273-.137c.136 0 .228-.091.364-.137a1.11 1.11 0 0 1 0-.546c.046-.319.228-.638.547-.866l2.004-1.366c.32-.228.683-.32 1.002-.228.365.046.684.228.911.547l3.28 4.692c.228.318.273.683.228 1.047-.046.32-.273.638-.547.866l-2.004 1.412c-.319.182-.683.273-1.002.228a1.365 1.365 0 0 1-.456-.183l-1.047.82c-.32.365-1.003.82-1.367 1.094l.137.227c.136.137.273.365.364.547l.137.273c0 .091.045.228.045.32 0 .181 0 .318-.045.41v.272l-.046.046s-.045.046-.09.137c-.183.273-.593.91-1.732.728v.137c-.045.182-.091.365-.182.501a1.385 1.385 0 0 1-.364.365c-.32.227-.456.227-.684.273h-.364v.045a.346.346 0 0 0-.182-.09c-.046.09-.046.181-.046.227a1.223 1.223 0 0 1-.273.547c-.137.227-.365.319-.501.41-.091.045-.137.045-.137.09l-.046.046h-.318c-.32.046-.456 0-.684-.09h-.09c-.046.09-.092.227-.137.318-.046.137-.137.228-.228.319-.137.137-.32.182-.501.273l-.183.091-.592.091v-.045c-.045 0-.09-.046-.182-.046-.045 0-.091 0-.136-.045-.365-.137-.502-.273-.593-.41-.045-.046-.045-.091-.136-.091v-.046l-.091-.09h-.046c0-.092-.182-.229-.273-.32l-.091-.09h-.046l-.137.136-.319.319v.045h-.045c-.046 0-.046 0-.046.046l-.045.045c-.273.32-.592.456-.911.547-.228.045-.456 0-.684-.046-.227-.045-.41-.182-.592-.319a1.4 1.4 0 0 1-.455-.683 1.346 1.346 0 0 1-.456.091c-.09 0-.546-.045-.592-.045-.273-.137-.547-.273-.729-.501a1.73 1.73 0 0 1-.319-.775c-.182.046-.364.046-.546.091l-.046-.045c-.045-.046-.09-.046-.182-.091a1.33 1.33 0 0 1-.638-.365c-.09-.09-.182-.273-.273-.455-.046-.137-.091-.273-.091-.41-.364.045-.456.045-.866-.046h-.045c-.273-.136-.456-.182-.547-.319-.136-.136-.227-.273-.364-.546 0-.046 0-.046-.046-.091-.045-.32-.09-.456 0-.82.091-.273.182-.41.274-.547l.09-.182.137-.091.228-.182v-.046c-.091-.046-.228-.182-.364-.273-.183-.137-.32-.274-.456-.365l-.228-.09.092-.046-.137-.091c-.091-.091-.137-.137-.228-.137l-.045-.046v-.045l-.046-.046c-.046 0-.045 0-.091-.045l-.046-.046-.09-.09-.092-.092-.136-.046-.046-.045c0-.091-.228-.228-.41-.365l-.137-.09c-.09.045-.182.045-.273.09-.319.046-.683 0-1.002-.227l-2.004-1.412a1.298 1.298 0 0 1-.547-.866c-.091-.364 0-.729.228-1.048l3.28-4.691c.227-.32.546-.501.865-.547.364-.091.729 0 1.048.228zm2.05 3.644l-2.961 4.282c.09.09.273.273.41.364l.045.046c.137.045.182.136.273.182.092.091.183.182.274.228.364.273.774.592 1.093.865.091.046.182.182.319.228.045-.091.091-.091.137-.182.045-.046.09-.046.182-.091.045-.046.09-.091.136-.091.091-.046.137-.092.228-.092.046 0 .137-.045.228-.045.364-.046.547 0 .82.136.09 0 .09 0 .182.046.137.137.228.182.319.273.045.046.091.137.182.32l.091.136.046.273.09-.045c.137-.137.274-.274.456-.365.046 0 .046 0 .092-.045l.182-.091.546-.046c.183.091.41.137.593.228v.045h.09l.456.547v.091l.091.319h.137c.091 0 .228-.046.41-.046.136 0 .228.046.364.046.046.046.091.091.137.091.137.046.319.137.501.319.046.045.046.045.046.091l.09.091.046.046c.228.592.228.637.182.82v.227l.41.137a.993.993 0 0 1 .365.228c.136.09.228.182.273.319.091.09.137.273.228.41v.136l.045.046v.045c0 .091 0 .137-.045.228 0 .091 0 .182-.046.319a.348.348 0 0 1-.09.228l-.046.136h.09v.046c.092.137.183.228.32.364l.136.091.091.092c.137.136.274.273.456.318.091.046.182.046.273.046.046-.046.137-.046.137-.091h.045v-.046c.091 0 .137-.045.183-.09.045-.046.09-.137.136-.228.046-.137.046-.274.046-.365a.345.345 0 0 0-.091-.182l-.046-.046c-.09-.09-.136-.09-.182-.182l-.091-.091c0-.046-.046-.091-.046-.091h-.045l-.046-.046c-.045-.045-.045-.09-.09-.09l-.046-.046c-.046-.046-.046-.091-.092-.137l-.09-.046v-.045l-.046-.046c0-.045-.046-.045-.046-.045l-.09-.046v-.045l-.092-.091-.046-.046-.045-.091c0-.046 0-.046-.046-.091l-.045-.046v-.045c.045-.137.045-.274.136-.365.092-.09.228-.09.41-.09h.046c.228.181.273.227.319.273 0 .045.045.09.136.182.046.045.046.09.092.09l.136.138.684.728c.045.091.09.137.136.183.137.136.228.182.32.227l.045.046c.045 0 .136.045.227.045a.859.859 0 0 0 .365-.09l.045-.046c.183-.091.228-.274.274-.456 0-.182-.046-.41-.091-.546l-.046-.091c-.045-.046-.182-.183-.273-.32-.091-.045-.137-.09-.137-.09h-.046l-.045-.092c0-.045 0-.045-.046-.09l-.09-.046-.092-.046v-.045c0-.046 0-.092-.045-.092l-.137-.136-.091-.091-.046-.046-.045-.09-.091-.092h-.046v-.045c0-.046-.045-.046-.045-.046 0-.046-.046-.046-.092-.091-.09-.091-.136-.182-.136-.274 0-.09.045-.182.09-.273v-.045l.046-.046c.046 0 .092-.046.137-.091h.046c.319-.046.364.045.5.228.092.09.137.136.183.182.045.045.045.045.137.091.045.091.09.137.09.182a.628.628 0 0 1 .137.183c.137.045.32.273.547.5.273.32.547.638.638.684.045.045.09.045.09.045.046.046.092.046.138.046.136 0 .136 0 .182-.046h.045a.348.348 0 0 0 .228-.09c.046-.092.091-.137.091-.183v-.045l.046-.046c.045-.046.09-.046.136-.046 0 0-.09 0-.09-.045v-.091-.137c-.046-.046-.046-.091-.092-.091v-.091c-.045-.091-.182-.228-.273-.319-.046-.045-.137-.091-.137-.182l-.957-1.048-.136-.136c-.137-.137-.273-.274-.319-.547v-.046c.046-.09.091-.182.137-.228.09-.045.136-.09.273-.09h.045c.228 0 .274.09.41.273l.228.227.137.137.046.046 1.047 1.184c.182.182.41.41.866.365a.946.946 0 0 0 .273-.092c.046 0 .091-.045.091-.045v-.046l.046-.045c.09 0 .09-.046.136-.091.046-.046.046-.137.046-.228a.389.389 0 0 0 0-.319c-.046-.091-.091-.228-.137-.273a1.975 1.975 0 0 0-.273-.32l-.182-.227-.41-.547c-.137-.136-.274-.318-.41-.5l-.32-.456h-.09l-.046-.091a1.077 1.077 0 0 0-.273-.41c-.41-.501-1.139-1.276-1.412-1.731 0-.046-.091-.137-.182-.273-.046-.046-.091-.137-.137-.137-.046-.046-.273-.046-.456-.046h-.546c-.456 0-1.048-.045-1.185 0l-.045.046v.045c-.091.091-.319.365-.41.41a.355.355 0 0 0-.182.183l-.046.045-.182.182c-.046 0-.046.046-.046.091l-.045.046h-.046c-.045.046-.09.091-.182.137l-.091.09v.046c-.137.046-.592.501-.82.638-.182.137-.41.319-.456.364v.046h-.045a.792.792 0 0 0-.319.137c-.045.045-.091.045-.137.09l-.41.137-.273.091c-.137 0-.228 0-.273.046h-.046c-.5 0-.592 0-1.002-.137-.091 0-.182-.045-.273-.09-.091-.046-.137-.092-.228-.137a.628.628 0 0 1-.182-.137l-.137-.137c-.09-.045-.136-.136-.182-.136h-.046l-.227-.456v-.045c0-.274.09-.365.182-.456.045-.046.045-.091.091-.091v-.046l.046-.09h.045c.046-.046.091-.046.091-.092l.046-.09c.045-.046.09-.046.09-.092.046 0 .046-.046.092-.091.729-.774 1.503-1.868 2.232-2.597.046-.045.046-.09.091-.09 0-.046 0-.046.046-.137l.045-.046h.046c0-.045 0-.045.045-.091v-.045h.046l.182-.183c.046-.045.091-.136.137-.182-.046 0-.137-.046-.228-.091-.228-.091-.501-.137-.638-.182h-.09c-.092-.046-.183-.046-.32-.046h-.045c-.046-.045-.182-.045-.32-.045h-.045c-.09 0-.182 0-.227.045-.046 0-.046 0-.092.046H62.181c-.091.045-.137.045-.228.09-.091.046-.228.092-.319.137-.045 0-.137.046-.228.092-.045 0-.136 0-.182.045-.136 0-.319.046-.364.091v.046h-.41c-.091.045-.183.045-.32.045h-.318c-.137-.045-.273-.045-.364 0h-.046l-.046-.045c-.045-.046-.227-.046-.364-.091-.091 0-.137-.046-.182-.046-.137 0-.228-.045-.319-.09a.647.647 0 0 0-.273-.092l-.183-.091zm16.99-2.733l-2.004 1.412c-.046.045-.091.136-.137.182 0 .091 0 .182.046.273l3.006 4.282.32.41c.045.091.136.137.181.137.092.045.183 0 .274-.046l2.004-1.366c.046-.091.091-.137.137-.228 0-.091 0-.182-.091-.273l-3.28-4.692a.25.25 0 0 0-.228-.137c-.091 0-.182 0-.228.046zm.183 6.97c-.775-.957-2.233-3.235-2.961-4.283h-.046c-.045.046-.091.046-.091.091l-.046.046h-.045a.943.943 0 0 0-.273.091c-.046 0-.137.046-.183.046-.09.045-.182.045-.273.09-.182.046-.273.046-.455.092-.091 0-.228 0-.274.045h-.683a1.142 1.142 0 0 0-.456-.09c-.364-.046-.774-.229-1.184-.32v-.045c-.045-.046-.136-.046-.228-.091-.09-.046-.182-.046-.273-.046l-.501-.045h-.091c-.137 0-.319 0-.365.045l-.045.046h-.273c-.091 0-.137.045-.183.09h-.045c-.091 0-.273.092-.456.137-.182.092-.319.183-.41.228l-1.776 2.096v.045l-.046.046h-.045c-.091.09-.137.182-.228.273-.273.365-.638.775-.957 1.139l-.182.182c-.091.137-.228.273-.319.41.046.046.091.137.182.182h.046c0 .046.091.091.182.137a.48.48 0 0 0 .228.091h.046a.909.909 0 0 0 .41.091c.136 0 .273-.045.41-.091h.09l.046-.046.046-.045h.045c.137 0 .32-.091.456-.182l.364-.228c.091-.046.137-.091.137-.091l.045-.046v-.045c.183-.046.274-.137.365-.228 0 0 .045-.046.136-.091l.137-.137c.137-.136.228-.182.273-.273.137-.091.274-.182.502-.501.227-.182.41-.41.637-.638l.091-.091.137-.137.046-.045h.045c.228.045.683.045 1.184 0 .73 0 1.595 0 1.731.136.228.137 1.003 1.185 1.276 1.595h.045l.046.045c.046.091.046.137.091.183l.046.045.136.182h.046l.045.046v.045h.046v.046c.091.137.364.456.547.683l.136.182.091.137c.137.182.365.501.501.638.046-.046.091-.046.137-.091.592-.547 1.458-1.185 2.095-1.686l.046-.09h.046zm-17.811-5.65l-2.005-1.411c-.09-.046-.182-.046-.273-.046-.091 0-.136.046-.182.137l-3.325 4.692c-.046.09-.046.182-.046.273a.997.997 0 0 0 .137.228l2.004 1.366c.046.046.137.091.228.046l.273-.32.046-.09v-.046l.045-.045c.046 0 .046-.046.091-.091l1.048-1.458v-.046l.046-.045c.09-.046.09-.046.136-.137l.046-.045.045-.091a.628.628 0 0 0 .137-.183l1.321-1.822.273-.41c.046-.09.091-.182.046-.228a.348.348 0 0 0-.091-.227zm3.598 11.389c-.045.045-.045.09-.09.136l-.046.046c-.091.046-.182.182-.228.364v.274c0 .09.046.182.046.273a.698.698 0 0 0 .455.319c.456.09.729-.182 1.048-.547.09-.09.182-.182.227-.273l1.185-1.139c.045-.091.09-.228.136-.364 0-.137 0-.274-.09-.41-.046-.091-.092-.183-.228-.228-.092-.091-.228-.091-.41-.137-.091.046-.183.046-.274.091-.09 0-.136.046-.182.091v.046h-.091c-.046.046-.137.137-.137.182-.045 0-.045.046-.045.091h-.046v.046c-.09 0-.09 0-.136.046l-.092.136a1.386 1.386 0 0 1-.364.364l-.228.228h-.045a1.21 1.21 0 0 1-.228.274c-.046 0-.091.045-.137.09zm-1.867.09c.045 0 .045.046.136.046.365.091.502-.09.684-.273l1.366-1.412.137-.137c.182-.136.364-.273.364-.546-.045-.182-.09-.32-.182-.41-.091-.091-.137-.137-.228-.137-.09-.046-.136-.046-.227-.046-.046 0-.092.046-.137.046l-.046.046h-.045l-.046.045c-.136.046-.136.091-.182.137l-.137.137-.136.136c0 .046-.091.091-.091.137-.092 0-.137.045-.183.136l-.227.183c0 .045 0 .045-.046.09v.046l-.091.046-.045.045c-.046.046-.046.046-.046.091h-.046c-.045.046-.09.046-.09.092 0 0-.046.045-.046.09l-.046.046h-.045s-.046 0-.046.046c-.046.045-.046.045-.046.09l-.045.047-.091.045c-.046.046-.137.091-.182.182-.046.046-.091.091-.137.228l-.046.045s-.045.092-.045.183c0 .09.045.136.045.182h.046v.046c.045.09.045.136.091.182h.046l.09.09zm-1.321-1.23c.136 0 .273-.045.319-.09v-.046h.045c.182-.09.319-.228.456-.364l.09-.137.137-.136c.137-.137.365-.32.41-.41v-.046c0-.41 0-.729-.227-.957-.502-.41-.957.091-1.367.547l-.228.228-.136.09c-.183.183-.365.365-.41.684.045.182.09.273.136.41a.735.735 0 0 0 .32.182c.09.046.273.046.455.046zm13.665-4.509s-.045 0 0 0z" fill="#EF7F1A"/></svg>