<svg width="83" height="84" fill="none" xmlns="http://www.w3.org/2000/svg"><path clip-rule="evenodd" d="M41.477 7.804c18.95 0 34.3 15.397 34.3 34.347 0 7.288-2.277 14.075-6.194 19.632H13.372C9.454 56.226 7.177 49.44 7.177 42.151c0-18.95 15.35-34.347 34.3-34.347v0z" stroke="#EF7F1A" stroke-width=".687" stroke-miterlimit="22.926" stroke-linecap="round" stroke-linejoin="round"/><path d="M23.029 61.51c-5.284-5.056-8.29-12.071-8.29-19.36 0-14.804 11.98-26.784 26.738-26.784 4.464 0 8.837 1.139 12.71 3.234" stroke="#EF7F1A" stroke-width="1.373" stroke-miterlimit="22.926" stroke-linecap="round" stroke-linejoin="round"/><path d="M41.477 47.48a5.33 5.33 0 1 0 0-10.659 5.33 5.33 0 0 0 0 10.66zM45.395 38.46l15.214-15.532M61.429 45.931l6.696 1.185m-7.06-10.432l6.514-1.913-6.514 1.913zm-3.326 17.629l5.512 4.009-5.512-4.009z" stroke="#EF7F1A" stroke-width="1.373" stroke-miterlimit="22.926" stroke-linecap="round" stroke-linejoin="round"/><path clip-rule="evenodd" d="M41.477 1.518c22.457 0 40.633 18.175 40.633 40.633 0 7.835-2.233 15.168-6.104 21.363.364-.546.683-1.138 1.002-1.73H5.947c.319.592.683 1.184 1.047 1.73C3.122 57.32.89 49.986.89 42.151c0-22.458 18.176-40.633 40.587-40.633v0zM76.006 63.56l-1.094 1.64 1.094-1.64zm-1.14 1.686c-.364.5-.728 1.047-1.138 1.548.41-.5.774-1.047 1.139-1.548zm-1.184 1.594c-.364.5-.774 1.002-1.184 1.503.41-.501.82-1.002 1.184-1.503zm-1.23 1.548a39.027 39.027 0 0 1 0 0zm-1.32 1.504l-.456.455.456-.455zm-.456.455c-.273.274-.547.592-.865.866.318-.274.592-.592.865-.866zm-.957.957l-.41.41.41-.41zm-.546.5c-.228.274-.501.502-.775.73.274-.228.547-.456.775-.73zm-.911.866c-.137.137-.274.228-.41.365.136-.137.273-.228.41-.365zm-.593.501c-.273.228-.5.41-.774.638.273-.227.501-.41.775-.638zm-.956.775c-.137.091-.273.228-.41.319.137-.091.273-.228.41-.32zm-.638.5a28.5 28.5 0 0 0 0 0zm-.91.684l-.41.273.41-.273zm-.684.501l-.41.274.41-.274zm-1.002.638c-.091.091-.228.137-.365.228.137-.091.274-.137.365-.228zm-.684.456a.993.993 0 0 0 0 0zm-1.002.592c-.09.045-.227.09-.319.182.092-.091.228-.137.32-.182zm-.728.41c-.137.045-.228.136-.365.182.137-.046.228-.137.364-.182zm-1.003.546a2.219 2.219 0 0 0 0 0zm-.774.365a.735.735 0 0 0 0 0zm-.957.455c-.09.046-.227.091-.318.137.09-.046.227-.091.318-.137zm-.865.365c-.091.045-.228.09-.319.136.091-.045.228-.09.319-.136zm-1.868.774c-.09.046-.227.046-.319.091.091-.045.228-.045.32-.091zm-.91.319c-.092 0-.137.045-.229.045.092 0 .137-.045.228-.045zm-1.914.592c-.091.046-.137.046-.228.091.091-.045.137-.045.228-.09zm-1.048.273c-.09.046-.182.046-.273.091.091-.045.182-.045.273-.09zm-.91.228c-.092.046-.137.046-.228.046.09 0 .136 0 .227-.046zm-1.048.273c-.091 0-.183 0-.274.046.091-.045.183-.045.274-.045zm-2.05.365h-.182.182zm-.911.091c-.091.045-.137.045-.228.045.091 0 .137 0 .228-.045zm-10.386.045c-.091 0-.182 0-.228-.045.046.045.137.045.228.045zm-.957-.136h-.227.227zm-1.093-.182c-.091 0-.137 0-.228-.046a.41.41 0 0 0 .228.046zm-.91-.137c-.092-.045-.138-.045-.229-.045.091 0 .137 0 .228.045zm-1.094-.273c-.046 0-.137 0-.182-.046.045.046.136.046.182.046zm-1.959-.456c-.046-.045-.137-.045-.182-.09.045.045.137.045.182.09zm-.82-.273c-.091-.046-.182-.046-.273-.091.09.045.182.045.273.09zm-1.093-.365c-.046 0-.137-.045-.182-.045.045 0 .136.045.182.045zm-.82-.273c-.091-.045-.182-.045-.273-.091.09.046.182.046.273.091zm-1.822-.729a2.207 2.207 0 0 1 0 0zm-.866-.364c-.136-.046-.227-.091-.364-.137.137.046.228.091.364.137zm-.956-.41c-.091-.091-.228-.137-.32-.182.092.045.229.09.32.182zm-.775-.41a2.217 2.217 0 0 1 0 0zm-1.002-.501c-.09-.046-.228-.137-.319-.182.091.045.228.136.32.182zm-.729-.41a1.365 1.365 0 0 0 0 0zm-.956-.547a4.223 4.223 0 0 0 0 0zm-.729-.455c-.091-.091-.228-.137-.364-.228.136.091.273.137.364.228zm-.911-.592l-.41-.274.41.274zm-.683-.502c-.137-.09-.274-.182-.41-.273l.41.273zm-.684-.455c-.227-.182-.455-.364-.683-.501.228.137.456.319.683.501zm-.91-.683c-.137-.091-.274-.228-.41-.32.136.092.273.229.41.32zm-.547-.456c-.274-.227-.547-.41-.775-.638.228.228.502.41.775.638zm-.957-.774c-.136-.137-.273-.228-.41-.365.137.137.274.228.41.365zm-.546-.501a11.777 11.777 0 0 1 0 0zm-.912-.82c-.136-.137-.273-.273-.455-.41.182.136.319.273.456.41zm-.546-.501c-.273-.274-.547-.592-.866-.866.32.274.593.592.866.866zm-.866-.866c-.136-.136-.273-.319-.41-.455.137.136.274.319.41.455zm-.5-.546a39.027 39.027 0 0 1 0 0zm-1.322-1.458c-.41-.501-.774-1.002-1.184-1.503.41.5.774 1.002 1.184 1.503zm-1.23-1.549c-.41-.5-.774-1.047-1.138-1.548.364.5.728 1.047 1.138 1.548zM8.088 65.2c-.41-.547-.73-1.093-1.094-1.64.365.547.684 1.093 1.094 1.64z" stroke="#EF7F1A" stroke-width="1.373" stroke-miterlimit="22.926" stroke-linecap="round" stroke-linejoin="round"/><path clip-rule="evenodd" d="M77.008 61.783c-6.924 12.527-20.225 20.954-35.53 20.954-15.26 0-28.607-8.427-35.531-20.953h71.06v0z" stroke="#EF7F1A" stroke-width="1.373" stroke-miterlimit="22.926" stroke-linecap="round" stroke-linejoin="round"/><path clip-rule="evenodd" d="M73.272 67.432c-7.47 9.338-18.904 15.305-31.795 15.305-12.845 0-24.324-5.967-31.75-15.305h63.545z" stroke="#EF7F1A" stroke-width=".687" stroke-miterlimit="22.926" stroke-linecap="round" stroke-linejoin="round"/></svg>