<svg width="71" height="80" fill="none" xmlns="http://www.w3.org/2000/svg"><path d="M18.46 15.765H5.037v34.079h13.425V15.765zM34.467 15.765H20.01v34.079h14.457V15.765zM50.99 15.765H36.533v34.079H50.99V15.765zM66.48 15.765H53.057v34.079H66.48V15.765z" stroke="#EF7F1A" stroke-width="1.033" stroke-miterlimit="22.926" stroke-linecap="round" stroke-linejoin="round"/><path clip-rule="evenodd" d="M1.422 12.667h68.157v7.745h-.517v33.046H45.827v-.516H1.422V12.667z" stroke="#EF7F1A" stroke-width="2.065" stroke-miterlimit="22.926" stroke-linecap="round" stroke-linejoin="round"/><path d="M8.65 60.17v12.393M15.88 60.17v12.393M23.108 60.17v12.393M30.337 60.17v12.393M37.565 60.17v12.393M45.31 60.17v12.393M52.023 60.17v12.393M59.768 60.17v12.393" stroke="#EF7F1A" stroke-width="1.033" stroke-miterlimit="22.926" stroke-linecap="round" stroke-linejoin="round"/><path clip-rule="evenodd" d="M69.062 12.667l.517.517v2.581h-.517v62.477H45.827v-.516H1.422V12.667h67.64z" stroke="#EF7F1A" stroke-width="2.065" stroke-miterlimit="22.926" stroke-linecap="round" stroke-linejoin="round"/><path clip-rule="evenodd" d="M7.618 1.308h55.764l5.68 11.36H1.422l6.196-11.36v0z" stroke="#EF7F1A" stroke-width="2.065" stroke-miterlimit="22.926" stroke-linecap="round" stroke-linejoin="round"/><path d="M12.265 4.406L9.683 9.053M19.494 4.406L18.46 9.053M27.239 4.406l-.517 4.647M35.5 4.406v4.647M50.99 4.406l1.033 4.647m6.196-4.647l2.582 4.647-2.582-4.647zm-22.719 0v4.647-4.647zm7.745 0l.517 4.647-.517-4.647z" stroke="#EF7F1A" stroke-width="1.033" stroke-miterlimit="22.926" stroke-linecap="round" stroke-linejoin="round"/></svg>