<svg width="71" height="71" fill="none" xmlns="http://www.w3.org/2000/svg"><path clip-rule="evenodd" d="M5.49 22.253L26.536 6.698 66.34 22.253v47.582H5.49V22.253z" stroke="#EF7F1A" stroke-width="1.83" stroke-miterlimit="22.926" stroke-linecap="round" stroke-linejoin="round"/><path clip-rule="evenodd" d="M1.83 19.966L26.536 1.665 70 18.593v5.033L26.536 6.698 1.83 24.998v-5.032z" stroke="#EF7F1A" stroke-width="1.83" stroke-miterlimit="22.926" stroke-linecap="round" stroke-linejoin="round"/><path clip-rule="evenodd" d="M36.144 16.763v21.046H13.726V22.253l13.268-9.608 9.15 4.118zM58.562 37.809H41.634v-20.13l16.928 6.404V37.81z" stroke="#EF7F1A" stroke-width="1.83" stroke-miterlimit="22.926" stroke-linecap="round" stroke-linejoin="round"/><path d="M36.144 41.469H13.726v20.13h22.418V41.47zM58.562 41.469H41.176v20.13h17.386V41.47z" stroke="#EF7F1A" stroke-width="1.83" stroke-miterlimit="22.926" stroke-linecap="round" stroke-linejoin="round"/><path d="M25.163 41.469v20.13M25.163 14.018v23.79M49.87 20.88V37.81M49.87 41.469v20.13M13.726 26.828h22.418M41.634 26.828h16.928M13.726 51.534h22.418M41.634 51.534h16.928" stroke="#EF7F1A" stroke-width=".915" stroke-miterlimit="22.926" stroke-linecap="round" stroke-linejoin="round"/></svg>