<svg width="70" height="75" fill="none" xmlns="http://www.w3.org/2000/svg"><path d="M4.773.424h61.515s.53.53.53 1.06v65.228c0 .53-.53.53-.53.53H4.773c-.53 0-.53 0-.53-.53V56.106h1.59v9.546h59.394V2.546H5.833v53.56h-1.59V1.485c0-.53 0-1.06.53-1.06z" fill="#EF7F1A"/><path d="M8.485 4.667h54.09l.531.53V62.47c0 .53-.53.53-.53.53H8.485s-.53 0-.53-.53V5.197l.53-.53zm53.56 1.06H9.015V61.94h53.03V5.727zM11.136 7.318c71.06 0-33.409 0 0 0z" fill="#EF7F1A"/><path clip-rule="evenodd" d="M12.197 8.91h19.621v49.848H12.197V8.909zM33.41 7.849h26.514v52.5H33.41v-52.5 0zm2.65 2.12h21.743v47.728H36.061V33.833h-.53c-.531 0-1.061-.53-1.061-1.06s.53-1.06 1.06-1.06h.53V9.97v0z" stroke="#EF7F1A" stroke-width="1.061" stroke-miterlimit="22.926" stroke-linecap="round" stroke-linejoin="round"/><path d="M68.94 66.712H1.06v6.364h67.88v-6.364z" stroke="#EF7F1A" stroke-width="2.121" stroke-miterlimit="22.926" stroke-linecap="round" stroke-linejoin="round"/><path d="M41.894 31.712H35.53c-.586 0-1.06.356-1.06.796 0 .439.474.795 1.06.795h6.364c.586 0 1.06-.356 1.06-.795 0-.44-.474-.796-1.06-.796z" stroke="#EF7F1A" stroke-width="1.061" stroke-miterlimit="22.926" stroke-linecap="round" stroke-linejoin="round"/></svg>