<svg width="352" height="459" viewBox="0 0 352 459" fill="none" xmlns="http://www.w3.org/2000/svg">
<path d="M313.737 453.101C286.78 443.629 237.286 408.556 237.286 398.925C237.286 397.279 231.14 385.394 223.629 372.515C215.238 358.128 205.685 332.04 198.852 304.855C188.825 264.962 187.772 254.183 188.138 195.25C188.489 138.824 187.699 129.89 182.357 129.89C172.21 129.89 103.613 146.023 96.0915 150.179C92.2646 152.293 86.5107 154.023 83.3051 154.023C71.2975 154.023 73.3035 161.836 86.9841 168.352L101.158 175.104L99.0796 197.746C97.9367 210.2 95.9652 225.367 94.6984 231.45C91.9733 244.537 91.2624 244.441 127.603 235.91C159.08 228.521 169.58 229.998 166.61 241.397C165.101 247.19 158.016 249.883 134.325 253.666C95.4773 259.871 91.5397 263.135 94.6195 286.581C95.9397 296.632 98.1298 328.783 99.4863 358.028L101.953 411.201L91.3203 416.064C69.6842 425.96 52.9451 411.341 41.7414 372.766C35.5332 351.391 35.5691 351.111 44.5184 351.111C54.4071 351.111 56.8465 343.895 59.7544 306.044L62.1633 274.689L44.5393 274.995C34.8462 275.163 20.7132 277.55 13.1326 280.3C-1.50265 285.608 -8.15535 294.8 2.63831 294.8C21.4381 294.8 21.9767 363.653 3.27496 376.188C-5.92929 382.357 -19.1227 379.049 -25.7387 368.914C-32.1813 359.044 -32.0687 357.684 -23.3223 339.753C-3.64611 299.413 -5.10833 288.442 -29.956 289.981C-60.939 291.9 -57.0784 284.107 -22.5386 275.008C26.6106 262.061 24.4965 263.412 12.2533 252.779C1.37209 243.33 -11.1517 222.584 -11.1517 214.009C-11.1517 210.675 -5.75447 209.983 6.79251 211.709C32.0552 215.185 40.7201 221.773 43.5872 239.685C45.3743 250.849 47.7725 254.622 52.502 253.707C60.2618 252.207 61.7462 233.636 56.4453 204.371C50.8279 173.357 47.2004 171.414 9.93894 179.451C-27.0736 187.435 -28.283 187.511 -26.3718 181.756C-24.6793 176.659 -17.8509 173.983 75.0001 142.024C112.466 129.128 155.506 113.882 170.645 108.145C199.465 97.2211 231.884 94.5268 245.632 101.913C253.274 106.018 253.237 106.405 244.016 119.007C238.827 126.099 231.582 138.511 227.917 146.591C221.092 161.637 212.729 209.891 215.988 215.424C216.985 217.118 218.768 229.788 219.95 243.58C222.492 273.243 244.973 344.378 258.708 366.218C268.408 381.642 294.817 407.421 300.917 407.421C307.605 407.421 325.441 379.671 325.441 369.265C325.441 356.393 334.303 364.099 343.496 384.966C353.809 408.374 354.831 434.433 346.072 450.66C340.375 461.216 337.457 461.436 313.737 453.101ZM160.724 358.79C147.732 351.715 107.147 312.671 106.995 307.1C106.961 305.866 105.429 302.472 103.589 299.56C98.1613 290.969 102.918 289.976 127.701 294.53C158.82 300.247 181.451 316.256 188.964 337.864C193.744 351.613 193.832 355.565 189.475 360.835C182.842 368.858 178.665 368.561 160.724 358.79ZM111.951 197.261C113.122 187.86 115.241 178.864 116.659 177.271C119.11 174.519 159.771 183.473 163.971 187.69C168.344 192.079 160.411 197.419 142.222 202.33C131.696 205.172 121.372 209.041 119.278 210.927C111.78 217.682 109.855 214.093 111.951 197.261ZM32.926 97.9668C36.2318 96.0292 54.2636 89.8647 72.9966 84.2679C91.7296 78.671 117.876 69.4944 131.099 63.8753C155.663 53.4372 170.539 51.5312 192.707 55.9817C211.147 59.6835 207.972 68.2389 186.196 73.5292C175.728 76.0724 152.737 81.5599 135.106 85.7236C117.475 89.8873 96.7503 95.193 89.0513 97.5141C71.8195 102.709 24.1792 103.093 32.926 97.9668ZM9.8854 65.4091C-1.53203 60.8025 -1.43867 59.7099 11.8889 41.9642C37.5014 7.86101 54.2847 -28.168 51.9611 -44.0596L50.2152 -56L69.2939 -53.4595C79.7871 -52.0623 94.0678 -48.9262 101.029 -46.4904C112.041 -42.6372 113.354 -40.6897 111.137 -31.5023C108.048 -18.7071 84.5826 21.2903 80.164 21.2903C78.4258 21.2903 77.0036 24.0397 77.0036 27.4002C77.0036 35.7772 89.7796 32.2311 137.582 10.5859C178.061 -7.74286 201.556 -11.3783 215.132 -1.41349C228.497 8.39584 220.055 17.2681 197.357 17.2681C186.277 17.2681 166.837 20.7282 154.155 24.9572C141.474 29.1862 115.962 34.8782 97.4606 37.6061C77.2731 40.5826 61.1971 45.201 57.2571 49.1558C51.447 54.9878 23.9624 69.9698 20.2992 69.3017C19.5303 69.1615 14.8441 67.4098 9.8854 65.4091Z" fill="white" fill-opacity="0.08"/>
</svg>
